<svg xmlns="http://www.w3.org/2000/svg" viewBox="0 0 48 48">
  <rect width="48" height="48" rx="10" fill="#e8f5e9"/>
  <path d="M39 28.5c0-1.4-.4-2.7-1.2-3.7l-4.5-5.8C32.4 18 31.2 17 30 17H18c-1.2 0-2.4 1-3.3 2l-4.5 5.8c-.8 1-1.2 2.3-1.2 3.7V34c0 1.1.9 2 2 2h2v-2c0-1.7 1.3-3 3-3s3 1.3 3 3v2h12v-2c0-1.7 1.3-3 3-3s3 1.3 3 3v2h2c1.1 0 2-.9 2-2v-5.5z" fill="#2e7d32"/>
  <path d="M30 17H18c-1.2 0-2.4 1-3.3 2l-4.5 5.8c.4-.3 1-.5 1.8-.5h24c.8 0 1.4.2 1.8.5l-4.5-5.8C32.4 18 31.2 17 30 17z" fill="#4caf50"/>
  <path d="M15 22h18v3H15z" fill="#b2dfdb"/>
  <circle cx="16" cy="35" r="4" fill="#374151"/>
  <circle cx="16" cy="35" r="1.5" fill="#f3f4f6"/>
  <circle cx="32" cy="35" r="4" fill="#374151"/>
  <circle cx="32" cy="35" r="1.5" fill="#f3f4f6"/>
</svg>