<svg xmlns="http://www.w3.org/2000/svg" viewBox="0 0 48 48">
  <rect width="48" height="48" rx="10" fill="#f5f5f5"/>
  <g transform="translate(4,4)">
    <path d="M32.8 5.2c-1.6-1.6-4.1-1.6-5.7 0L8.2 24.1c-1.6 1.6-1.6 4.1 0 5.7 1.6 1.6 4.1 1.6 5.7 0L32.8 10.9c1.6-1.6 1.6-4.1 0-5.7z" fill="#9e9e9e"/>
    <path d="M30 8l-3-3-19 19 3 3 19-19z" fill="#757575"/>
    <path d="M8.2 5.2c-1.6-1.6-4.1-1.6-5.7 0l24.7 24.7c1.6 1.6 4.1 1.6 5.7 0 1.6-1.6 1.6-4.1 0-5.7L8.2 5.2z" fill="#bdbdbd"/>
    <path d="M5 8l19 19 3-3-19-19L5 8z" fill="#9e9e9e"/>
  </g>
</svg>